<svg fill="none" height="120" viewBox="0 0 121 120" width="121" xmlns="http://www.w3.org/2000/svg"><path d="m60.5223.00000346c33.1286.01113724 59.9777 26.87139654 59.9777 59.99999654v.0223c-.011 33.1341-26.8825 59.9887-60.0223 59.9777-33.1341-.011-59.988827-26.8881-59.977697-60.0223.011138-33.1341 26.882497-59.9888269 60.022297-59.97769654zm-.3062 15.43139654c-1.6478 6.235-7.2036 11.774-13.021 17.5914-8.701 8.7234-18.5934 18.5935-18.5934 33.4181.0223 17.4355 14.1399 31.5699 31.5754 31.6144 17.4689 0 31.6367-14.1511 31.6534-31.6144 0-14.8246-9.8645-24.6892-18.5934-33.4181l-.7796-.7798c-5.528-5.5345-10.6727-10.8505-12.2414-16.8116zm.4286 47.3409c3.6297 3.869 5.9344 6.5355 8.3226 9.447.1781.2171.3395.451.4843.7015 2.9226 4.2141 2.5273 9.8923-.952 13.6556-4.0972 4.4368-11.0113 4.7096-15.4481.6123-4.4368-4.0972-4.7096-11.0113-.6124-15.4481 2.327-2.7501 5.1383-5.4556 8.2056-8.9683zm-14.446-14.5073 1.5253 1.4418 7.0811 7.2425c.2672.3062.2672.7571 0 1.0633l-7.404 8.1834-2.5886 3.1508c-.9853 1.2025-1.8204 2.5107-2.4884 3.9135-.0946.2339-.2951.4064-.54.4621h-.2616c-.7182-.0612-1.5421-1.3862-1.5421-1.3862l-.1309-.1984c-.171-.2665-.3278-.5408-.4703-.8259l-.1392-.3006c-1.0131-3.2956-1.0911-6.8083-.2393-10.1484l.0959-.3473c.7861-2.7726 2.0268-5.402 3.6728-7.7748 1.0578-1.5588 2.2045-3.0507 3.4293-4.4758zm14.0619-14.6409c1.8872 2.1432 4.0138 4.292 6.0178 6.2961l.0446.1392c4.1918 3.9024 7.9773 8.2167 11.3119 12.8762 2.828 3.9748 4.3756 8.7178 4.4313 13.5999 0 2.1099-.3174 4.203-.9408 6.2183l-.0309.0831c-.1678.4085-.5328.7067-.9712.7797h-.2004c-.4342-.1391-.7961-.4286-1.0243-.8239l-.3357-.504c-1.8051-2.6779-3.8405-5.1916-6.0829-7.5179l-2.8893-3.0506-9.6307-10.0316c-1.6255-1.5643-4.5314-4.37-5.7562-5.8953-.0389-.0835-.0835-.1615-.1391-.2394-.334-.4565-.5901-.9631-.7627-1.5031v-.3006c-.167-.9797-.0334-1.9873.3786-2.8892.2672-.5734.6346-1.0967 1.0855-1.542 1.8649-1.8649 3.7298-3.6909 5.4945-5.6949z" fill="#009dde"/></svg>